<?xml version="1.0" encoding="UTF-8" standalone="no"?><!-- Generator: Gravit.io -->
<svg xmlns="http://www.w3.org/2000/svg" style="isolation:isolate"
     viewBox="150.349 55.307 76.236 52.932" width="76.236pt" height="52.932pt">
    <g>
        <path d=" M 226.585 108.239 L 150.349 108.239 L 150.349 55.307 L 226.585 55.307 L 226.585 108.239 Z "
              fill="rgb(22,130,30)"/>
        <g>
            <path d=" M 172.486 76.962 C 173.575 77.062 172.975 75.114 173.367 74.761 C 173.442 74.588 173.58 74.588 173.591 74.806 L 173.591 76.464 C 173.585 77 173.936 77.153 174.212 77.262 C 174.497 77.243 174.688 77.254 174.799 77.534 C 174.846 78.484 174.889 79.437 174.932 80.388 C 174.932 80.388 175.598 80.586 175.63 78.784 C 175.659 77.723 175.419 76.845 175.559 76.637 C 175.565 76.437 175.82 76.42 176.004 76.528 C 176.289 76.728 176.416 76.972 176.858 76.873 C 177.532 76.681 177.933 76.364 177.944 75.839 C 177.907 75.35 177.852 74.852 177.641 74.363 C 177.671 74.272 177.507 74.046 177.542 73.955 C 177.662 74.146 177.843 74.127 177.883 73.955 C 177.772 73.574 177.594 73.221 177.306 73.057 C 177.066 72.849 176.713 72.896 176.585 73.338 C 176.533 73.827 176.771 74.435 177.141 74.924 C 177.218 75.114 177.324 75.431 177.277 75.722 C 177.082 75.822 176.889 75.784 176.725 75.613 C 176.725 75.613 176.185 75.205 176.185 75.124 C 176.33 74.208 176.219 74.099 176.14 73.846 C 176.086 73.502 175.915 73.384 175.784 73.157 C 175.651 73.004 175.47 73.004 175.383 73.157 C 175.145 73.566 175.254 74.444 175.426 74.843 C 175.547 75.205 175.738 75.431 175.651 75.431 C 175.575 75.639 175.424 75.586 175.313 75.35 C 175.154 74.861 175.127 74.127 175.127 73.801 C 175.077 73.393 175.023 72.524 174.756 72.296 C 174.593 72.079 174.348 72.188 174.262 72.396 C 174.246 72.795 174.246 73.202 174.289 73.574 C 174.477 74.227 174.529 74.806 174.622 75.478 C 174.645 76.375 174.106 75.867 174.128 75.414 C 174.256 74.843 174.216 73.927 174.111 73.702 C 174.022 73.465 173.918 73.41 173.7 73.457 C 173.528 73.438 173.091 73.919 172.969 74.716 C 172.969 74.716 172.861 75.124 172.819 75.495 C 172.756 75.903 172.486 76.192 172.299 75.431 C 172.131 74.878 172.033 73.521 171.759 73.837 C 171.682 74.897 171.585 76.773 172.486 76.962 Z "
                  fill="rgb(255,255,255)"/>
            <path d=" M 174.128 77.732 C 173.233 77.751 171.918 78.91 171.879 79.554 C 172.825 79.101 173.759 78.666 174.721 78.187 C 174.564 77.96 174.713 77.751 174.128 77.732 Z "
                  fill="rgb(255,255,255)"/>
            <path d=" M 177.21 78.593 L 177.206 78.593 C 177.168 78.656 177.041 78.629 176.946 78.629 C 176.83 78.629 176.776 78.603 176.71 78.512 C 176.676 78.412 176.771 78.312 176.817 78.231 L 176.821 78.231 C 176.825 78.231 176.83 78.212 176.837 78.204 C 176.875 78.176 176.933 78.149 177.001 78.14 C 177.093 78.132 177.206 78.168 177.265 78.303 C 177.306 78.421 177.265 78.54 177.21 78.593 Z  M 179.078 81.211 C 179.462 79.916 179.068 78.946 179.199 78.821 L 179.206 78.821 L 179.21 78.821 L 179.215 78.821 C 179.22 78.821 179.227 78.812 179.227 78.812 C 179.716 79.327 180.381 78.874 180.531 78.701 C 180.599 78.612 180.753 78.557 180.866 78.665 C 181.238 78.937 181.895 78.812 182.031 78.34 C 182.108 77.878 182.176 77.398 182.193 76.898 C 181.944 76.972 181.75 77.034 181.672 77.117 C 181.655 77.134 181.639 77.162 181.634 77.189 C 181.616 77.315 181.596 77.461 181.573 77.596 C 181.573 77.606 181.564 77.625 181.562 77.634 C 181.553 77.651 181.532 77.659 181.515 77.67 C 181.428 77.723 181.283 77.687 181.27 77.561 C 181.156 77.045 180.681 76.962 180.391 77.778 C 180.192 77.94 179.843 77.968 179.804 77.742 C 179.854 77.189 179.63 77.117 179.188 77.37 C 179.047 76.283 178.902 75.25 178.76 74.163 C 178.948 74.163 179.11 74.299 179.283 74.091 C 179.1 73.52 178.715 72.36 178.497 72.251 L 178.493 72.251 C 178.484 72.242 178.469 72.223 178.459 72.215 C 178.459 72.215 178.45 72.215 178.445 72.206 L 178.432 72.206 C 178.422 72.197 178.409 72.197 178.407 72.187 C 178.384 72.187 178.364 72.178 178.344 72.187 C 178.289 72.187 178.23 72.223 178.162 72.242 C 177.931 72.306 177.709 72.514 177.781 72.904 C 178.056 74.571 178.23 75.839 178.504 77.497 C 178.552 77.697 178.384 77.95 178.176 77.931 C 177.815 77.687 177.727 77.189 177.116 77.217 C 176.672 77.225 176.167 77.706 176.101 78.168 C 176.033 78.54 176.004 78.937 176.101 79.255 C 176.416 79.635 176.793 79.59 177.116 79.51 C 177.382 79.399 177.607 79.127 177.703 79.191 C 177.761 79.301 177.693 80.169 176.436 80.832 C 175.659 81.175 175.045 81.266 174.713 80.633 C 174.511 80.233 174.729 78.729 174.226 79.073 C 172.729 82.933 177.727 83.477 178.287 79.237 C 178.323 79.118 178.436 79.001 178.513 79.029 C 178.552 79.046 178.577 79.093 178.585 79.182 C 178.469 83.014 174.721 83.269 174.085 82.072 C 173.922 81.783 173.877 81.157 173.861 80.777 C 173.831 80.541 173.772 80.405 173.707 80.351 C 173.555 80.241 173.352 80.541 173.306 81.058 C 173.242 81.475 173.261 81.592 173.261 81.981 C 173.46 85.026 178.289 83.72 179.078 81.211 Z "
                  fill="rgb(255,255,255)"/>
            <path d=" M 181.627 72.604 C 181.631 72.604 181.634 72.595 181.643 72.595 C 181.731 72.587 181.834 72.676 181.885 72.785 C 181.942 72.904 181.912 73.021 181.827 73.049 C 181.735 73.065 181.62 72.984 181.562 72.868 C 181.505 72.741 181.537 72.623 181.627 72.604 Z  M 179.514 75.159 L 179.516 75.159 L 179.521 75.159 C 179.594 75.214 180.465 75.214 180.565 75.169 L 180.565 75.159 L 180.567 75.159 C 180.869 75.051 182.293 73.421 182.293 73.421 C 182.223 73.356 182.15 73.313 182.078 73.248 C 181.999 73.185 182.005 73.113 182.078 73.049 C 182.429 72.84 182.32 72.387 182.136 72.178 C 181.982 72.106 181.837 72.088 181.708 72.098 C 181.582 72.106 181.466 72.143 181.371 72.188 C 181.124 72.433 181.065 72.804 181.258 73.049 C 181.448 73.13 181.639 73.329 181.51 73.429 C 180.974 73.999 179.575 74.961 179.504 75.142 L 179.504 75.149 C 179.51 75.149 179.51 75.159 179.51 75.159 L 179.514 75.159 Z "
                  fill="rgb(255,255,255)"/>
            <path d=" M 172.387 82.498 C 172.153 82.97 172.053 82.644 172.033 82.372 C 171.994 81.864 172.044 81.403 172.095 81.03 C 172.155 80.659 172.095 80.769 171.979 80.922 C 171.446 81.773 171.398 83.042 171.694 83.422 C 171.85 83.604 172.105 83.685 172.299 83.622 C 172.632 83.477 172.78 82.798 172.699 82.553 C 172.588 82.372 172.5 82.345 172.387 82.498 Z "
                  fill="rgb(255,255,255)"/>
            <path d=" M 191.282 73.456 C 191.298 73.529 191.315 73.601 191.325 73.674 C 191.361 73.827 191.387 73.976 191.42 74.126 C 191.282 73.936 191.176 73.794 191.127 73.738 C 190.816 73.37 191.128 73.496 191.282 73.456 Z  M 189.96 73.51 C 190.586 74.351 191.185 75.193 191.766 76.065 C 191.858 76.715 191.927 77.354 191.969 77.987 C 192.064 79.373 192.094 81.103 192.008 82.572 C 192.267 82.572 192.684 82.145 192.83 81.52 C 192.927 80.642 192.798 78.866 192.789 78.349 C 192.783 78.136 192.771 77.883 192.757 77.619 C 193.432 78.724 194.088 79.89 194.732 81.175 C 194.968 81.066 194.918 79.753 194.778 79.563 C 194.266 78.449 193.55 77.353 193.324 76.936 C 193.241 76.783 192.963 76.357 192.63 75.867 C 192.569 75.168 192.504 74.576 192.462 74.398 C 192.354 73.657 192.764 74.479 192.705 74.046 C 192.574 73.312 192.166 72.813 191.684 72.133 C 191.529 71.916 191.536 71.87 191.294 72.188 C 191.152 72.51 191.156 72.78 191.198 73.035 C 191.134 72.94 191.054 72.832 190.941 72.696 C 190.529 72.342 190.504 72.324 190.153 72.035 C 189.985 71.907 189.555 71.689 189.484 72.053 C 189.444 72.387 189.464 72.567 189.52 72.84 C 189.564 73.021 189.829 73.338 189.96 73.51 Z "
                  fill="rgb(255,255,255)"/>
            <path d=" M 194.927 81.52 C 194.325 82.155 193.456 82.924 192.517 83.277 C 192.413 83.385 192.764 83.884 193.223 83.874 C 193.987 83.794 194.662 83.359 195.283 82.227 C 195.448 81.964 195.745 81.402 195.753 80.957 C 195.808 78.395 195.625 76.4 195.24 74.544 C 195.212 74.363 195.228 74.155 195.258 74.1 C 195.308 74.035 195.476 74.1 195.564 73.954 C 195.697 73.818 195.219 72.713 194.948 72.287 C 194.85 72.098 194.816 71.97 194.655 72.307 C 194.487 72.587 194.372 73.076 194.388 73.521 C 194.753 76.038 194.864 78.259 195.106 80.777 C 195.122 81.021 195.09 81.383 194.927 81.52 Z "
                  fill="rgb(255,255,255)"/>
            <path d=" M 204.991 74.516 C 204.966 74.344 204.88 73.927 204.913 73.865 C 204.966 73.746 205.213 73.882 205.297 73.738 C 205.432 73.61 204.658 72.604 204.382 72.179 C 204.288 71.989 204.255 71.862 204.095 72.206 C 203.922 72.478 203.867 72.976 203.935 73.41 C 204.339 76.156 204.641 78.812 204.703 81.239 C 204.672 81.475 204.658 81.602 204.549 81.883 C 204.314 82.2 204.044 82.579 203.802 82.762 C 203.548 82.942 203.017 83.123 202.845 83.259 C 202.293 83.576 202.293 83.947 202.741 83.957 C 203.507 83.867 204.411 83.803 205.037 82.861 C 205.201 82.598 205.399 81.883 205.405 81.447 C 205.464 78.884 205.373 76.374 204.991 74.516 Z "
                  fill="rgb(255,255,255)"/>
            <path d=" M 199.204 77.253 C 199.208 76.898 199.24 76.436 199.263 76.138 C 199.272 76.03 199.294 75.911 199.403 75.885 C 199.507 75.857 199.69 75.992 199.695 75.875 C 199.677 75.649 199.629 75.322 199.502 75.169 C 199.329 74.916 198.869 74.969 198.789 75.377 C 198.789 75.522 198.86 75.603 198.848 75.73 C 198.828 75.811 198.746 75.866 198.558 75.775 C 198.588 75.749 198.434 75.541 198.434 75.541 C 198.289 75.441 198.091 75.541 197.963 75.622 C 197.899 75.749 197.843 75.966 197.922 76.191 C 198.132 76.583 198.857 77.242 199.204 77.253 Z "
                  fill="rgb(255,255,255)"/>
            <path d=" M 198.963 73.791 C 199.467 74.414 199.984 75.081 200.503 75.771 C 200.611 77.178 200.645 78.471 200.755 79.88 C 200.736 80.478 200.553 81.284 200.37 81.356 C 200.37 81.356 200.109 81.52 199.928 81.347 C 199.794 81.294 199.273 80.478 199.273 80.478 C 199.005 80.233 198.827 80.297 198.637 80.478 C 198.111 80.986 197.881 81.928 197.523 82.58 C 197.428 82.726 197.169 82.852 196.884 82.571 C 196.15 81.575 196.581 80.152 196.487 80.514 C 195.838 81.249 196.122 82.462 196.27 82.726 C 196.487 83.151 196.659 83.432 197.074 83.64 C 197.46 83.929 197.754 83.749 197.917 83.55 C 198.297 83.151 198.307 82.145 198.483 81.946 C 198.612 81.575 198.924 81.639 199.079 81.8 C 199.232 82.009 199.407 82.154 199.625 82.272 C 199.98 82.58 200.408 82.644 200.827 82.354 C 201.116 82.2 201.305 81.981 201.468 81.575 C 201.653 81.088 201.565 78.581 201.521 77.169 C 201.789 77.546 202.048 77.933 202.311 78.322 C 202.426 79.553 202.493 80.771 202.455 81.937 C 202.423 82.164 203.261 81.239 203.253 80.805 C 203.248 80.421 203.252 80.079 203.253 79.756 C 203.657 80.402 204.052 81.056 204.421 81.719 C 204.652 81.611 204.574 80.297 204.43 80.116 C 204.049 79.471 203.543 78.758 203.158 78.216 C 203.082 77.532 202.976 76.715 202.933 76.473 C 202.859 76.083 202.782 75.503 202.677 75.041 C 202.639 74.861 202.548 74.282 202.583 74.227 C 202.623 74.099 202.8 74.235 202.88 74.082 C 203.008 73.946 202.447 72.487 202.156 72.07 C 202.058 71.879 201.866 71.943 201.641 72.251 C 201.421 72.451 201.502 72.904 201.584 73.338 C 201.795 74.438 201.973 75.558 202.123 76.676 C 201.85 76.271 201.513 75.778 201.189 75.309 C 201.164 75.183 201.146 75.09 201.146 75.086 C 201.146 75.069 201.096 74.18 201.06 73.972 C 201.051 73.882 201.031 73.854 201.121 73.865 C 201.216 73.955 201.225 73.963 201.287 73.982 C 201.381 73.999 201.468 73.837 201.412 73.683 C 201.116 73.138 200.816 72.587 200.519 72.053 C 200.451 71.97 200.355 71.898 200.24 72.062 C 200.134 72.16 200.018 72.324 200.023 72.551 C 200.05 72.94 200.118 73.338 200.143 73.729 C 200.151 73.778 200.16 73.83 200.17 73.879 C 200.129 73.827 200.095 73.785 200.074 73.764 C 199.314 72.977 200.423 73.638 199.933 73.013 C 199.513 72.56 199.389 72.415 199.033 72.143 C 198.857 72.034 198.746 71.807 198.687 72.179 C 198.664 72.515 198.637 72.895 198.659 73.176 C 198.659 73.338 198.818 73.619 198.963 73.791 Z "
                  fill="rgb(255,255,255)"/>
            <path d=" M 199.865 92.946 C 199.865 92.955 199.855 92.955 199.853 92.955 L 199.845 92.955 L 199.83 92.955 C 199.561 92.946 199.407 92.946 199.137 92.937 C 199.137 92.919 199.128 92.91 199.128 92.893 C 199.063 92.701 198.603 92.72 198.492 92.874 L 198.488 92.874 L 198.483 92.884 C 198.48 92.884 198.48 92.893 198.476 92.901 L 198.476 92.919 C 198.471 92.929 198.471 92.937 198.471 92.946 C 198.107 92.982 197.781 92.937 197.412 92.91 C 197.309 92.782 197.321 92.548 197.445 92.485 L 197.45 92.485 C 198.275 92.521 199.054 92.493 199.887 92.529 C 200.018 92.648 199.95 92.901 199.865 92.946 Z  M 200.275 91.415 C 200.05 91.442 199.428 91.506 199.428 91.506 C 198.703 91.425 198.168 91.415 197.356 91.379 C 197.432 91.289 197.561 90.898 197.401 90.762 C 197.36 90.728 197.296 90.709 197.205 90.709 L 197.197 90.709 L 197.19 90.709 C 197.185 90.709 197.176 90.7 197.172 90.69 C 197.172 90.69 197.169 90.69 197.169 90.681 C 197.129 90.636 197.104 90.481 197.079 90.437 L 197.074 90.437 L 197.065 90.437 L 197.06 90.437 L 197.056 90.437 C 196.519 90.572 196.535 91.134 196.884 91.379 C 191.197 91.379 182.469 91.289 180.605 91.289 L 176.184 91.289 C 176.891 92.322 177.922 92.404 179.265 92.429 C 181.792 92.429 193.491 92.404 196.816 92.404 C 196.581 92.821 196.839 93.49 197.027 93.616 C 197.031 93.616 197.036 93.626 197.04 93.626 C 197.047 93.635 197.052 93.635 197.06 93.635 L 197.07 93.635 C 197.292 93.688 197.389 93.527 197.466 93.418 C 197.818 93.445 199.83 93.471 200.018 93.408 C 200.143 93.59 200.27 93.761 200.505 93.735 C 200.92 93.644 201.246 93.599 201.26 92.757 C 201.26 92.757 201.217 91.325 200.275 91.415 Z "
                  fill="rgb(255,255,255)"/>
            <path d=" M 183.595 76.12 C 184.032 76.292 184.306 75.459 184.488 74.553 C 184.613 74.3 184.703 74.272 184.766 74.399 C 184.749 75.614 184.853 75.886 185.162 76.247 C 185.858 76.782 186.433 76.32 186.474 76.265 C 186.519 76.229 187.015 75.731 187.015 75.731 C 187.131 75.603 187.291 75.595 187.467 75.712 C 187.627 75.858 187.607 76.12 187.96 76.292 C 188.254 76.42 188.888 76.328 189.038 76.067 C 189.238 75.731 189.28 75.614 189.371 75.486 C 189.516 75.295 189.754 75.378 189.754 75.441 C 189.733 75.55 189.598 75.65 189.686 75.839 C 189.858 75.967 189.897 75.886 189.998 75.858 C 190.35 75.686 190.615 74.925 190.615 74.925 C 190.626 74.635 190.47 74.662 190.361 74.725 C 190.23 74.806 190.22 74.833 190.084 74.916 C 189.915 74.933 189.58 75.052 189.419 74.797 C 189.247 74.489 189.247 74.055 189.115 73.746 C 189.115 73.729 188.893 73.266 189.102 73.23 C 189.203 73.249 189.426 73.312 189.464 73.121 C 189.575 72.94 189.228 72.415 188.993 72.16 C 188.784 71.934 188.499 71.907 188.227 72.134 C 188.037 72.307 188.061 72.515 188.024 72.696 C 187.976 72.913 187.989 73.177 188.207 73.457 C 188.4 73.838 188.75 74.327 188.634 75.006 C 188.634 75.006 188.426 75.333 188.071 75.295 C 187.926 75.261 187.681 75.197 187.552 74.253 C 187.46 73.53 187.58 72.515 187.271 72.054 C 187.16 71.763 187.083 71.481 186.814 71.979 C 186.737 72.171 186.433 72.46 186.656 73.057 C 186.836 73.438 186.914 74.046 186.827 74.734 C 186.702 74.933 186.674 74.997 186.506 75.197 C 186.27 75.441 186.019 75.378 185.824 75.287 C 185.639 75.159 185.498 75.097 185.416 74.716 C 185.428 74.091 185.459 73.077 185.348 72.858 C 185.186 72.515 184.907 72.641 184.791 72.741 C 184.22 73.258 183.937 74.136 183.77 74.833 C 183.612 75.342 183.441 75.197 183.326 74.989 C 183.041 74.725 183.02 72.623 182.674 72.968 C 182.121 74.544 182.993 76.284 183.595 76.12 Z "
                  fill="rgb(255,255,255)"/>
            <path d=" M 187.872 80.76 C 187.525 80.878 187.19 80.968 187.19 81.475 C 187.233 81.719 187.226 81.856 187.186 81.909 C 187.186 81.92 187.176 81.928 187.171 81.928 L 187.171 81.937 L 187.17 81.937 L 187.165 81.937 L 187.165 81.946 L 187.156 81.946 C 187.151 81.946 187.145 81.956 187.14 81.956 C 187.135 81.964 187.127 81.964 187.127 81.964 C 187.04 81.973 186.92 81.884 186.827 81.845 C 186.619 81.683 186.015 81.322 185.928 80.514 C 185.917 80.333 186.053 80.18 186.266 80.161 L 186.3 80.161 L 186.305 80.161 C 186.665 80.261 187.199 80.269 187.661 80.316 C 188.037 80.343 188.223 80.633 187.872 80.76 Z  M 189.165 77.515 C 189.17 77.498 189.174 77.489 189.179 77.489 C 189.184 77.479 189.184 77.479 189.187 77.47 C 189.192 77.462 189.195 77.462 189.204 77.451 C 189.22 77.434 189.253 77.426 189.28 77.426 C 189.358 77.417 189.448 77.434 189.534 77.489 C 189.665 77.562 189.743 77.67 189.733 77.76 L 189.733 77.77 L 189.733 77.779 L 189.729 77.779 C 189.729 77.787 189.725 77.787 189.725 77.787 L 189.725 77.796 C 189.717 77.796 189.713 77.804 189.705 77.815 C 189.641 77.879 189.503 77.868 189.364 77.787 C 189.238 77.715 189.159 77.596 189.165 77.524 L 189.165 77.515 Z  M 191.842 79.544 C 191.842 79.544 191.847 79.544 191.847 79.535 L 191.851 79.535 L 191.851 79.527 C 191.851 79.527 191.851 79.518 191.847 79.51 L 191.68 79.41 L 188.438 79.391 C 188.4 79.383 188.368 79.355 188.348 79.346 L 188.346 79.346 L 188.346 79.336 L 188.341 79.336 L 188.337 79.327 L 188.331 79.327 L 188.331 79.319 L 188.331 79.31 L 188.331 79.302 C 188.331 79.291 188.337 79.291 188.337 79.291 C 188.353 79.263 188.393 79.246 188.438 79.229 C 189.217 79.127 190.59 78.902 190.678 77.571 C 190.667 76.881 190.388 76.437 189.539 76.311 C 188.918 76.364 188.477 76.962 188.545 77.625 C 188.518 77.796 188.608 78.149 188.426 78.187 C 187.233 78.304 185.933 79.047 185.885 79.582 L 185.884 79.582 L 185.874 79.582 L 185.869 79.582 L 185.86 79.591 L 185.858 79.591 L 185.854 79.591 L 185.849 79.591 L 185.844 79.591 L 185.831 79.582 C 185.754 79.563 185.655 79.437 185.672 79.255 C 185.627 78.332 185.324 77.289 184.853 76.482 C 184.687 76.311 184.613 76.247 184.562 76.239 L 184.558 76.239 L 184.549 76.239 L 184.545 76.239 L 184.542 76.239 C 184.54 76.247 184.536 76.247 184.526 76.247 L 184.522 76.256 C 184.486 76.273 184.437 76.337 184.343 76.409 C 184.178 76.601 184.155 76.728 184.164 77.09 C 184.171 77.135 184.468 77.96 184.724 78.549 C 184.893 79.165 185.054 79.854 184.936 80.514 C 184.54 81.384 183.731 82.155 182.955 82.58 C 182.557 82.707 182.219 82.671 182.128 82.58 L 182.128 82.572 C 181.895 82.426 181.89 82.155 181.904 82.1 L 181.908 82.1 C 182.561 81.639 183.314 81.275 183.901 80.044 C 184.072 79.572 184.125 79.291 183.956 78.557 C 183.885 78.296 183.797 78.068 183.616 77.879 C 183.616 77.879 183.621 77.879 183.621 77.868 C 183.731 77.815 184.019 78.032 184.066 77.896 C 183.997 77.543 183.761 77.081 183.496 76.845 C 183.26 76.628 183.01 76.609 182.792 76.801 C 182.554 76.936 182.504 77.417 182.615 77.843 C 182.744 78.149 183.095 78.204 183.344 78.838 L 183.344 78.846 C 183.349 78.885 183.426 79.327 183.301 79.51 C 183.199 79.825 181.899 80.85 181.809 80.905 L 181.8 80.914 L 181.8 80.922 L 181.795 80.922 L 181.792 80.922 L 181.788 80.922 L 181.784 80.922 C 181.784 80.914 181.779 80.914 181.779 80.914 C 181.779 80.886 181.788 80.814 181.779 80.705 C 181.775 80.524 181.852 80.089 181.848 80.008 L 181.843 80.008 L 181.843 79.999 L 181.838 79.999 C 181.412 80.28 181.267 81.131 181.188 81.384 C 180.101 82.128 178.869 82.689 178.158 83.458 C 177.787 84.03 180.71 82.788 181.048 82.644 C 181.052 82.644 181.058 82.644 181.061 82.653 C 181.124 82.716 181.124 82.96 181.322 83.187 C 181.627 83.604 182.271 83.857 182.898 83.703 C 183.952 83.323 184.558 82.598 185.181 81.801 C 185.267 81.675 185.407 81.575 185.532 81.675 C 185.956 82.626 187.181 83.296 188.764 83.368 C 189.129 82.925 188.957 82.698 188.807 82.616 C 188.759 82.58 188.019 82.29 187.905 82 C 187.836 81.738 188.008 81.503 188.364 81.322 C 189.376 81.203 190.379 81.058 191.346 80.75 C 191.353 80.425 191.545 79.935 191.673 79.727 C 191.763 79.582 191.82 79.563 191.842 79.544 Z "
                  fill="rgb(255,255,255)"/>
            <path d=" M 175.845 72.985 C 176.22 73.157 176.921 73.085 176.891 72.487 C 176.891 72.432 176.88 72.251 176.875 72.207 C 176.803 72.024 176.59 72.062 176.544 72.251 C 176.529 72.306 176.568 72.406 176.515 72.441 C 176.481 72.468 176.364 72.451 176.366 72.288 C 176.366 72.233 176.33 72.171 176.304 72.143 C 176.284 72.126 176.268 72.115 176.22 72.115 C 176.171 72.126 176.171 72.134 176.148 72.179 C 176.131 72.224 176.119 72.27 176.119 72.315 C 176.109 72.379 176.085 72.396 176.042 72.406 C 175.999 72.406 176.008 72.415 175.965 72.387 C 175.944 72.36 175.91 72.351 175.91 72.306 C 175.91 72.27 175.901 72.188 175.892 72.16 C 175.87 72.134 175.838 72.115 175.8 72.107 C 175.594 72.107 175.58 72.342 175.594 72.432 C 175.575 72.451 175.569 72.868 175.845 72.985 Z "
                  fill="rgb(255,255,255)"/>
            <path d=" M 187.317 76.918 C 187.317 76.864 187.28 76.809 187.255 76.782 C 187.234 76.765 187.22 76.754 187.171 76.754 C 187.123 76.765 187.123 76.772 187.093 76.817 C 187.084 76.854 187.066 76.898 187.066 76.953 C 187.059 77.018 187.036 77.035 186.991 77.045 C 186.946 77.045 186.959 77.053 186.917 77.025 C 186.891 77.001 186.862 76.99 186.862 76.945 C 186.862 76.898 186.855 76.826 186.837 76.8 C 186.818 76.772 186.784 76.754 186.746 76.745 C 186.545 76.745 186.533 76.98 186.54 77.073 C 186.529 77.081 186.52 77.497 186.796 77.626 C 187.171 77.796 188.057 77.698 187.845 77.118 C 187.845 77.063 187.832 76.881 187.822 76.837 C 187.748 76.656 187.541 76.701 187.492 76.881 C 187.48 76.945 187.521 77.045 187.467 77.081 C 187.435 77.106 187.315 77.081 187.317 76.918 Z "
                  fill="rgb(255,255,255)"/>
            <path d=" M 193.184 75.703 C 193.555 75.875 194.258 75.794 194.227 75.197 C 194.227 75.15 194.216 74.969 194.212 74.916 C 194.133 74.744 193.922 74.78 193.881 74.969 C 193.863 75.024 193.902 75.124 193.848 75.15 C 193.821 75.188 193.698 75.169 193.702 74.996 C 193.702 74.952 193.665 74.888 193.641 74.852 C 193.621 74.843 193.605 74.843 193.56 74.843 C 193.509 74.843 193.509 74.852 193.48 74.897 C 193.467 74.942 193.451 74.988 193.451 75.041 C 193.446 75.097 193.424 75.114 193.376 75.124 C 193.33 75.124 193.337 75.133 193.304 75.105 C 193.279 75.086 193.249 75.069 193.249 75.024 C 193.249 74.979 193.236 74.905 193.224 74.869 C 193.201 74.852 193.17 74.843 193.134 74.833 C 192.93 74.833 192.914 75.069 192.928 75.15 C 192.914 75.169 192.905 75.586 193.184 75.703 Z "
                  fill="rgb(255,255,255)"/>
            <path d=" M 193.435 73.366 C 193.564 73.738 193.336 74.091 193.471 74.146 C 193.601 74.208 193.774 73.755 193.842 73.347 C 193.92 73.013 193.685 72.343 193.352 72.207 C 193.145 72.152 192.855 72.279 192.951 72.551 C 192.903 72.687 193.356 73.121 193.435 73.366 Z "
                  fill="rgb(255,255,255)"/>
            <path d=" M 196.88 82.1 C 197.138 82.1 197.437 81.511 197.566 80.922 C 197.637 80.116 197.518 79.608 197.497 79.127 C 197.475 78.657 196.959 74.771 196.851 74.408 C 196.724 73.729 197.356 74.316 197.283 73.918 C 197.065 73.421 196.523 72.687 196.355 72.251 C 196.246 72.061 196.291 71.898 196.06 72.206 C 195.852 72.904 195.774 73.465 195.854 73.91 C 196.403 76.772 196.966 79.382 196.88 82.1 Z "
                  fill="rgb(255,255,255)"/>
            <path d=" M 203.359 74.435 C 203.421 74.616 203.271 75.222 203.396 75.277 C 203.513 75.341 203.674 74.861 203.734 74.416 C 203.767 74.172 203.59 73.33 203.277 73.167 C 203.099 73.121 202.834 73.248 202.918 73.546 C 202.875 73.691 203.287 74.172 203.359 74.435 Z "
                  fill="rgb(255,255,255)"/>
            <path d=" M 180.717 80.931 C 180.825 80.968 180.98 80.624 181.038 80.297 C 181.072 80.116 180.898 79.491 180.61 79.383 C 180.426 79.346 180.184 79.391 180.261 79.655 C 180.252 79.799 180.657 79.972 180.681 80.306 C 180.741 80.442 180.594 80.886 180.717 80.931 Z "
                  fill="rgb(255,255,255)"/>
            <path d=" M 172.851 72.959 C 172.91 73.104 172.799 73.565 172.913 73.602 C 173.025 73.646 173.18 73.285 173.238 72.949 C 173.266 72.759 173.241 72.126 172.81 71.998 C 172.632 71.951 172.384 72.062 172.468 72.288 C 172.425 72.396 172.789 72.751 172.851 72.959 Z "
                  fill="rgb(255,255,255)"/>
            <path d=" M 181.313 74.988 C 180.98 75.158 180.855 75.694 181.061 76.011 C 181.249 76.273 181.557 76.175 181.596 76.175 C 181.919 76.219 182.113 75.567 182.113 75.567 C 182.113 75.567 182.122 75.386 181.74 75.73 C 181.577 75.766 181.557 75.703 181.514 75.613 C 181.482 75.441 181.488 75.277 181.564 75.105 C 181.624 74.942 181.499 74.869 181.313 74.988 Z "
                  fill="rgb(255,255,255)"/>
            <path d=" M 183.802 72.985 C 183.922 72.904 183.963 72.84 184.006 72.695 C 184.058 72.441 183.741 72.813 183.698 72.532 C 183.63 72.27 183.831 72.171 184.026 71.907 C 184.031 71.735 184.026 71.617 183.788 71.754 C 183.626 71.862 183.292 72.207 183.286 72.605 C 183.272 72.823 183.231 72.823 183.376 72.968 C 183.485 73.121 183.592 73.104 183.802 72.985 Z "
                  fill="rgb(255,255,255)"/>
            <path d=" M 186.044 73.129 C 186.259 72.55 186.259 72.306 186.27 72.053 C 186.207 71.681 185.953 71.698 185.788 72.106 C 185.715 72.27 185.629 73.093 185.643 73.093 C 185.584 73.337 185.903 73.448 186.044 73.129 Z "
                  fill="rgb(255,255,255)"/>
            <path d=" M 200.146 77.243 C 200.146 77.243 198.418 78.476 198.372 78.513 C 198.203 78.666 198.289 79.201 198.372 79.146 C 198.497 79.191 200.236 78.013 200.205 77.868 C 200.283 77.879 200.322 77.181 200.146 77.243 Z "
                  fill="rgb(255,255,255)"/>
            <path d=" M 199.933 80.586 C 200.05 80.641 200.355 80.261 200.345 79.791 C 200.379 79.544 200.259 78.657 199.951 78.502 C 199.765 78.449 199.513 78.612 199.6 78.91 C 199.554 79.055 199.815 79.544 199.887 79.808 C 199.946 79.999 199.806 80.524 199.933 80.586 Z "
                  fill="rgb(255,255,255)"/>
            <path d=" M 190.13 83.16 C 190.13 83.178 190.275 83.305 190.447 83.205 C 190.807 83.069 191.039 82.925 191.546 82.815 C 191.674 82.815 191.673 82.453 191.457 82.453 C 191.184 82.453 190.932 82.471 190.654 82.689 C 190.486 82.734 190.456 82.626 190.422 82.535 C 190.379 82.309 190.515 82.145 190.486 81.982 C 190.499 81.982 190.329 81.828 190.153 81.92 C 190.15 81.92 189.777 82.173 189.659 82.345 C 189.585 82.398 189.593 82.453 189.613 82.554 C 189.671 82.679 189.77 82.644 189.885 82.572 C 190.04 82.562 190.114 82.662 190.098 82.843 C 190.03 83.069 190.13 83.151 190.13 83.16 Z "
                  fill="rgb(255,255,255)"/>
            <path d=" M 202.66 83.069 C 202.59 82.988 202.434 83.033 202.327 83.033 C 202.272 83.033 202.107 82.997 202.187 82.861 C 202.252 82.762 202.277 82.707 202.323 82.598 C 202.371 82.481 202.331 82.408 202.143 82.345 C 201.963 82.309 201.887 82.335 201.681 82.345 C 201.57 82.372 201.532 82.426 201.512 82.553 C 201.518 82.752 201.642 82.743 201.772 82.824 C 201.845 82.924 201.897 83.006 201.767 83.16 C 201.642 83.277 201.562 83.332 201.437 83.45 C 201.382 83.55 201.346 83.694 201.518 83.739 C 201.84 83.83 202.59 83.35 202.59 83.332 C 202.717 83.251 202.673 83.069 202.66 83.069 Z "
                  fill="rgb(255,255,255)"/>
        </g>
    </g>
</svg>